<?xml version="1.0" standalone="no"?>
<!DOCTYPE svg PUBLIC "-//W3C//DTD SVG 20010904//EN"
 "http://www.w3.org/TR/2001/REC-SVG-20010904/DTD/svg10.dtd">
<svg version="1.0" xmlns="http://www.w3.org/2000/svg"
 width="1048.000000pt" height="1048.000000pt" viewBox="0 0 1048.000000 1048.000000"
 preserveAspectRatio="xMidYMid meet">
<metadata>
Created by potrace 1.14, written by Peter Selinger 2001-2017
</metadata>
<g transform="translate(0.000000,1048.000000) scale(0.100000,-0.100000)"
fill="#000000" stroke="none">
<path d="M3855 7916 c-80 -36 -133 -127 -155 -263 -16 -99 -16 -99 -47 -61
-45 53 -74 77 -138 110 -138 72 -315 17 -381 -119 -52 -106 -38 -250 34 -355
57 -84 180 -182 337 -271 95 -53 434 -212 440 -206 2 3 5 54 6 114 2 93 13
175 43 314 3 13 26 90 51 171 53 171 66 240 63 330 -3 115 -46 207 -106 232
-43 17 -114 19 -147 4z"/>
<path d="M5707 7284 c-1 -1 -42 -5 -92 -9 -49 -3 -101 -8 -115 -10 -178 -26
-264 -45 -420 -92 -107 -32 -151 -54 -205 -104 -59 -54 -85 -120 -91 -227 -3
-48 -12 -112 -20 -142 -8 -30 -17 -64 -19 -75 -8 -33 -56 -124 -82 -155 -34
-40 -97 -76 -157 -90 -31 -7 -153 -10 -320 -9 -1241 8 -1396 1 -1591 -73 -193
-73 -343 -222 -413 -410 -45 -120 -57 -241 -67 -688 -2 -69 -3 -131 -4 -138
-1 -11 -29 -12 -144 -5 -265 15 -927 7 -1050 -12 -12 -2 -60 -6 -107 -10 -47
-3 -132 -13 -189 -21 -58 -8 -108 -14 -112 -14 -9 0 -79 -176 -113 -286 -43
-136 -73 -271 -91 -396 -3 -21 -7 -53 -9 -70 -3 -18 -8 -72 -11 -120 l-7 -87
44 4 c24 3 60 7 81 10 85 11 116 15 187 20 41 4 91 8 110 10 270 27 1282 28
1570 0 19 -2 73 -6 120 -9 47 -4 101 -9 120 -11 19 -2 61 -6 93 -9 119 -12
173 -18 197 -21 14 -2 63 -9 110 -15 188 -24 158 -19 375 -55 297 -49 481 -90
895 -200 96 -26 183 -49 193 -51 10 -2 27 -6 37 -9 10 -3 27 -7 37 -9 10 -2
65 -16 123 -31 58 -15 112 -28 120 -30 8 -2 38 -9 65 -15 28 -6 59 -14 70 -16
11 -2 29 -6 40 -8 272 -61 594 -123 790 -150 22 -4 51 -8 65 -11 14 -2 48 -7
75 -10 28 -3 64 -8 80 -10 54 -8 129 -17 170 -20 37 -3 110 -10 195 -20 31 -4
121 -10 305 -20 81 -5 573 -5 660 0 160 8 272 16 295 20 14 2 61 6 104 10 43
4 86 8 95 10 9 1 43 6 76 9 588 69 1210 225 1645 413 652 282 947 609 813 901
-8 19 -40 64 -71 100 -30 37 -57 69 -59 71 -1 2 -5 2 -8 -1 -3 -2 3 -20 12
-39 9 -18 19 -58 21 -89 l5 -55 -23 20 c-21 19 -232 272 -398 478 -40 49 -74
100 -77 111 -31 155 -43 180 -138 299 -39 48 -72 87 -73 87 -2 0 13 -25 31
-56 42 -69 59 -148 52 -236 -20 -240 -261 -493 -679 -711 -93 -49 -246 -119
-249 -114 -3 5 -7 76 -14 215 -3 81 -8 167 -10 192 -2 25 -6 88 -10 140 -13
195 -16 236 -20 260 -3 14 -7 59 -11 100 -3 41 -7 81 -9 90 -2 8 -6 44 -9 80
-4 36 -9 76 -11 90 -3 14 -7 45 -10 70 -5 41 -18 130 -31 205 -21 127 -64 226
-123 283 -55 54 -124 75 -260 82 l-114 5 2 82 c3 97 -13 135 -61 153 -117 41
-321 26 -389 -29 -23 -18 -24 -25 -23 -125 l1 -106 -91 -1 c-166 -2 -188 1
-253 32 -118 56 -171 159 -222 433 -32 168 -71 219 -226 296 -133 65 -379 126
-595 146 -68 6 -378 13 -383 8z m403 -70 c148 -16 177 -21 280 -45 98 -22 99
-23 242 -80 170 -67 206 -108 227 -259 36 -250 120 -410 247 -469 92 -44 149
-48 509 -36 378 13 523 12 580 -4 89 -26 153 -115 180 -252 9 -45 44 -264 50
-319 4 -30 9 -62 10 -70 5 -25 15 -131 20 -200 2 -36 7 -99 10 -140 11 -153
18 -307 30 -642 5 -134 4 -148 -12 -156 -46 -24 -428 -144 -533 -167 -8 -2
-58 -13 -110 -25 -117 -27 -127 -29 -165 -35 -16 -3 -66 -12 -109 -20 -44 -9
-82 -13 -85 -10 -5 6 -6 7 -15 84 -8 63 -9 72 -31 165 -158 664 -734 1176
-1410 1254 -126 15 -384 6 -492 -17 -460 -96 -839 -366 -1088 -776 -54 -89
-121 -228 -155 -323 -20 -55 -25 -62 -44 -56 -12 3 -136 42 -276 86 -140 44
-266 83 -280 87 -24 7 -25 10 -26 107 -4 221 -16 790 -17 802 0 10 -15 18 -18
10 0 -2 -3 -203 -6 -448 -3 -245 -6 -446 -8 -448 -1 -2 -47 8 -101 22 -127 32
-365 83 -429 91 -27 4 -52 9 -55 10 -3 2 -24 6 -46 9 -22 4 -49 8 -61 10 -12
3 -43 8 -70 12 -26 3 -55 8 -65 10 -29 5 -138 19 -233 30 -33 3 -67 8 -76 9
-9 2 -56 6 -104 10 -48 4 -94 8 -103 10 -10 2 -20 4 -23 4 -4 1 -5 92 -3 204
9 487 15 534 77 652 76 143 237 265 428 323 124 38 164 41 779 47 588 6 943
17 1024 31 92 16 192 114 250 247 38 87 47 134 60 315 5 73 38 137 89 176 68
52 237 116 372 141 137 25 220 38 289 44 127 12 370 9 496 -5z m1796 -668 c9
-13 14 -45 14 -88 l0 -68 -32 -1 c-18 -1 -46 -2 -63 -4 -16 -1 -96 -5 -177 -9
l-148 -7 0 79 c0 76 10 105 38 113 7 2 89 4 183 4 157 0 172 -2 185 -19z
m-1831 -812 c491 -80 890 -391 1116 -869 75 -159 132 -346 154 -505 3 -25 8
-57 11 -72 2 -16 0 -28 -5 -28 -5 0 -43 -4 -83 -10 -125 -16 -160 -19 -263
-26 -55 -3 -113 -8 -130 -10 -38 -5 -539 -4 -585 1 -19 2 -84 6 -145 10 -60 4
-117 8 -125 10 -8 2 -49 6 -90 10 -41 4 -82 8 -90 10 -8 1 -40 6 -70 9 -30 4
-145 23 -255 42 -200 34 -218 37 -265 48 -14 3 -36 8 -50 10 -14 2 -56 12 -95
21 -38 9 -79 19 -90 21 -11 2 -58 13 -105 25 -47 12 -89 22 -95 23 -29 8 -81
21 -175 48 -58 16 -112 31 -121 33 -49 11 -99 29 -99 37 0 17 63 163 108 248
257 493 731 859 1187 916 22 3 41 7 43 9 9 9 246 1 317 -11z m3499 -257 c5
-19 5 -19 -13 0 -20 22 -41 57 -41 70 1 13 48 -49 54 -70z m23 -100 c2 -20 -1
-18 -27 11 -18 19 -30 43 -30 60 0 27 0 26 27 -11 15 -21 28 -48 30 -60z m-13
-56 c8 -14 10 -34 7 -45 -6 -17 -10 -15 -33 13 -15 17 -25 38 -23 48 2 10 4
22 4 27 1 13 31 -15 45 -43z m-14 -110 c-1 -17 -13 -51 -19 -51 -4 0 -17 13
-29 29 -18 25 -20 34 -11 61 l11 31 24 -33 c13 -17 24 -34 24 -37z m221 -149
c79 -97 146 -179 149 -182 13 -12 138 -167 154 -191 9 -15 18 -36 21 -47 5
-26 -51 -136 -101 -199 -103 -130 -363 -323 -418 -309 -21 5 -72 72 -324 425
-74 104 -84 120 -80 137 2 10 35 42 73 72 155 120 249 222 304 333 22 44 43
95 47 114 4 21 11 32 19 29 7 -3 77 -85 156 -182z m-278 76 c14 -28 14 -34 0
-55 -15 -22 -17 -23 -34 -7 -25 23 -32 49 -19 74 15 29 35 25 53 -12z m-67
-93 c18 -35 18 -35 -3 -57 -19 -18 -24 -19 -38 -8 -34 28 -38 50 -14 76 12 13
25 24 29 24 4 0 15 -16 26 -35z m-8088 -44 c5 -34 -11 -44 -75 -46 -67 -2 -83
7 -75 38 8 31 17 35 86 33 56 -1 61 -3 64 -25z m242 0 c0 -38 -5 -41 -80 -42
-71 -2 -85 7 -71 44 10 26 14 27 81 27 l70 0 0 -29z m237 16 c16 -10 12 -47
-7 -57 -8 -4 -38 -7 -65 -5 -28 2 -56 4 -62 4 -7 1 -13 14 -13 30 0 16 6 32
13 34 17 8 120 3 134 -6z m-711 -19 c4 -32 -19 -47 -83 -52 -34 -3 -64 -2 -67
2 -9 15 7 61 22 64 9 2 40 3 70 3 44 0 56 -3 58 -17z m927 13 c37 -1 38 -2 35
-33 -3 -32 -4 -33 -53 -33 -76 -1 -100 7 -100 36 -1 30 10 38 49 34 17 -1 48
-3 69 -4z m-1160 -40 c-8 -35 -7 -34 -61 -40 -73 -9 -90 -4 -84 25 2 13 8 27
13 30 15 9 93 20 116 16 19 -4 22 -9 16 -31z m1439 11 c6 -6 8 -22 4 -36 -6
-25 -8 -25 -73 -20 -37 3 -71 8 -75 10 -4 3 -8 19 -8 36 l0 30 71 -4 c38 -3
75 -10 81 -16z m7038 -43 c7 -12 3 -23 -15 -39 -28 -27 -50 -21 -67 16 -11 24
-10 29 17 50 32 26 38 23 65 -27z m-8700 23 c0 -37 -23 -52 -88 -58 l-63 -7 7
29 c9 37 7 36 51 44 69 14 93 12 93 -8z m1896 -2 c6 -6 9 -22 6 -36 -5 -26 -6
-26 -70 -20 -74 7 -69 6 -72 26 -7 49 -3 52 62 45 34 -3 67 -10 74 -15z m197
-21 c32 -9 37 -14 37 -40 l0 -31 -62 7 c-35 4 -68 11 -74 16 -8 7 -11 38 -5
57 2 6 70 1 104 -9z m-883 -47 c10 -12 17 -32 15 -45 -2 -12 -6 -58 -10 -102
-3 -44 -10 -125 -15 -180 -6 -55 -13 -134 -16 -175 -3 -41 -8 -79 -11 -83 -12
-19 -64 -29 -153 -27 -233 4 -698 -4 -820 -15 -19 -1 -75 -6 -125 -9 -49 -4
-108 -9 -130 -12 -22 -2 -60 -6 -85 -8 -25 -3 -75 -7 -111 -11 -83 -8 -96 3
-79 67 7 23 13 50 15 58 2 8 29 116 59 240 66 263 67 264 173 276 37 4 70 8
73 9 3 1 41 5 85 9 44 4 96 9 115 11 19 3 91 7 160 11 69 4 127 8 128 10 2 1
164 2 359 1 l355 -2 18 -23z m1123 7 c19 -11 23 -58 5 -60 -23 -2 -109 10
-120 17 -5 3 -8 19 -8 35 l0 30 53 -6 c28 -4 60 -11 70 -16z m-688 -14 c79 -6
108 -9 360 -40 117 -14 388 -57 500 -79 193 -38 191 -36 200 -166 3 -52 8
-111 10 -130 2 -19 7 -80 10 -135 3 -55 8 -117 11 -139 10 -85 1 -88 -185 -57
-160 27 -166 28 -341 51 -183 24 -214 27 -300 35 -36 3 -81 8 -100 10 -62 8
-251 22 -390 30 -136 8 -150 17 -144 90 1 22 5 76 8 120 4 44 8 105 11 135 2
30 7 93 11 140 12 161 5 154 159 146 66 -3 147 -8 180 -11z m6944 -27 c14 -25
14 -28 -9 -47 -33 -27 -51 -26 -73 4 -18 25 -18 25 9 50 33 31 53 29 73 -7z
m-6045 6 c15 -6 23 -54 11 -66 -6 -5 -113 17 -122 25 -2 3 -6 17 -8 32 -3 27
-3 27 50 21 29 -3 60 -9 69 -12z m199 -46 c9 -5 17 -12 18 -16 0 -4 2 -15 4
-24 5 -26 -5 -28 -65 -15 -45 10 -55 16 -61 39 -4 15 -4 29 -1 33 8 7 81 -4
105 -17z m5737 -64 c0 -11 -58 -54 -73 -54 -3 0 -15 13 -27 30 l-21 29 38 25
38 24 23 -21 c12 -11 22 -26 22 -33z m1029 14 c37 -50 42 -82 6 -40 -22 27
-50 82 -41 82 3 0 18 -19 35 -42z m-6576 3 c21 -8 27 -17 27 -40 0 -20 -4 -29
-12 -27 -7 2 -34 9 -60 16 -45 12 -62 34 -51 67 4 11 44 5 96 -16z m190 -52
c10 -6 17 -21 17 -40 0 -26 -3 -30 -17 -24 -10 4 -33 11 -50 17 -39 11 -55 37
-44 72 1 6 71 -13 94 -25z m5199 -16 c29 -34 28 -41 -8 -62 -45 -27 -58 -26
-78 4 -21 32 -22 32 22 54 46 25 46 25 64 4z m1234 -67 c3 -10 2 -22 -3 -27
-13 -13 -63 60 -63 91 0 23 1 23 30 -10 16 -19 32 -43 36 -54z m-6604 30 c129
-32 226 -61 448 -131 97 -31 298 -91 430 -129 61 -17 97 -44 105 -79 2 -12 16
-80 30 -152 15 -71 29 -139 31 -150 2 -11 6 -32 9 -47 3 -15 12 -58 19 -95 20
-94 14 -100 -79 -78 -65 15 -417 109 -545 145 -173 49 -318 86 -436 110 -51
11 -102 25 -114 32 -27 17 -37 55 -45 163 -4 50 -8 106 -10 125 -2 19 -6 71
-10 115 -3 44 -8 102 -11 128 -5 49 6 77 31 77 7 0 73 -15 147 -34z m320 8
c35 -11 48 -22 53 -41 3 -14 3 -28 0 -31 -7 -7 -115 27 -115 36 0 4 -3 17 -6
30 -8 27 5 28 68 6z m5205 -46 c36 -41 365 -509 366 -521 1 -37 -9 -47 -100
-90 -256 -120 -461 -195 -764 -277 -165 -45 -188 -47 -217 -22 -36 30 -304
511 -297 532 4 13 25 24 63 35 123 34 341 108 459 156 118 47 365 165 408 195
28 20 59 17 82 -8z m-298 -14 c11 -15 19 -30 16 -33 -2 -4 -23 -16 -46 -26
l-41 -19 -19 23 c-26 31 -24 38 14 61 42 26 51 25 76 -6z m-4689 -12 c25 -12
36 -24 38 -44 4 -33 8 -32 -54 -12 -63 21 -74 31 -74 61 0 22 3 24 28 18 15
-3 43 -14 62 -23z m6034 -21 c23 -33 26 -43 16 -61 -11 -21 -12 -20 -41 16
-32 40 -31 39 -23 71 8 28 13 25 48 -26z m-5865 -27 c51 -15 75 -41 64 -70 -5
-13 -85 7 -109 27 -12 10 -21 59 -11 59 2 0 27 -7 56 -16z m4353 -1 c32 -37
30 -43 -14 -63 -56 -26 -61 -25 -81 10 l-18 29 43 20 c54 24 52 24 70 4z
m1497 -98 c0 -5 -6 -20 -13 -33 l-12 -23 -27 35 c-29 38 -34 65 -15 84 10 10
18 6 40 -20 15 -18 27 -37 27 -43z m-5637 36 c24 -9 49 -54 37 -65 -2 -2 -26
2 -53 9 -50 13 -66 27 -66 59 0 20 25 19 82 -3z m3982 -16 c21 -32 21 -32 -20
-50 -53 -22 -79 -19 -92 9 -12 28 -5 37 43 54 45 16 51 14 69 -13z m-3821 -26
c26 -7 41 -18 48 -35 14 -38 4 -44 -48 -28 -55 17 -50 12 -58 47 -8 31 -1 33
58 16z m3644 -35 c16 -25 16 -27 -2 -40 -10 -8 -34 -17 -53 -20 -29 -6 -39 -3
-54 16 -26 32 -23 38 30 54 62 19 59 20 79 -10z m1769 -36 c3 -11 -2 -31 -12
-45 l-17 -27 -29 34 c-32 40 -34 47 -12 79 l16 22 24 -22 c13 -12 26 -31 30
-41z m-5246 28 c33 -10 47 -20 54 -39 6 -15 8 -29 5 -31 -8 -8 -93 15 -101 27
-7 11 -11 57 -5 57 1 0 22 -6 47 -14z m3295 -52 c9 -14 14 -28 12 -30 -3 -3
-28 -11 -56 -19 -50 -13 -51 -13 -71 13 -22 27 -17 40 20 47 12 2 25 7 28 10
14 14 51 3 67 -21z m-3101 5 c20 -10 42 -56 31 -67 -2 -2 -25 2 -51 10 -38 11
-49 19 -55 41 -7 25 -5 27 21 27 16 0 40 -5 54 -11z m-177 -53 c155 -39 354
-83 447 -100 16 -3 52 -10 80 -15 28 -6 68 -13 88 -16 71 -10 121 -24 134 -37
7 -7 49 -132 94 -277 92 -298 92 -296 6 -280 -24 4 -64 10 -87 13 -24 3 -55 8
-69 11 -13 2 -42 7 -65 11 -22 3 -58 9 -80 14 -22 5 -59 11 -82 15 -39 5 -172
33 -422 86 -144 31 -146 33 -182 199 -30 140 -36 168 -44 210 -3 14 -13 64
-23 113 -10 48 -16 90 -13 92 9 10 45 4 218 -39z m5153 -31 c0 -18 -44 -55
-55 -47 -6 4 -21 20 -33 36 l-23 29 28 29 28 29 28 -32 c15 -18 27 -38 27 -44z
m-4841 55 c24 0 48 -21 56 -49 7 -23 6 -24 -36 -17 -46 7 -69 27 -69 59 0 13
5 17 16 13 9 -3 23 -6 33 -6z m2775 -22 c22 -30 5 -45 -59 -53 -48 -7 -52 -6
-63 19 -16 36 -17 34 20 44 62 16 86 13 102 -10z m-2582 -18 c3 0 11 -14 17
-31 l11 -32 -42 6 c-43 6 -68 27 -68 58 0 14 5 16 38 8 20 -5 40 -9 44 -9z
m2384 -26 c22 -33 12 -42 -57 -50 -53 -6 -55 -5 -67 21 -7 15 -11 29 -9 32 4
3 80 20 104 22 7 1 20 -10 29 -25z m-2243 0 c17 -5 43 -52 33 -61 -5 -6 -69 6
-85 16 -6 4 -14 19 -16 34 -5 23 -3 25 22 21 16 -3 36 -7 46 -10z m-4294 -30
c5 -5 4 -24 -1 -41 -7 -28 -13 -33 -41 -34 -83 -2 -118 -1 -123 4 -3 3 -1 20
4 38 7 29 14 35 43 39 48 7 109 4 118 -6z m263 -24 c-1 -19 -8 -37 -14 -41 -6
-4 -43 -6 -82 -5 -70 1 -71 2 -72 28 -2 49 11 55 106 54 l65 -1 -3 -35z m256
31 c9 -1 12 -13 10 -38 l-3 -38 -80 0 -80 0 -3 28 c-7 55 2 58 156 48z m3910
3 c22 -5 34 -14 41 -35 10 -28 9 -29 -23 -29 -38 0 -61 16 -71 48 -7 24 0 26
53 16z m1908 -19 c18 -28 16 -34 -13 -39 -86 -17 -92 -16 -109 10 -24 35 -9
46 73 52 25 2 36 -3 49 -23z m2343 -4 c27 -38 27 -43 -9 -70 -33 -24 -40 -21
-74 30 -16 26 -16 27 11 48 37 27 48 26 72 -8z m-8936 -25 c-3 -17 -8 -34 -12
-37 -3 -4 -37 -9 -74 -12 -76 -5 -88 3 -71 52 8 23 16 27 64 31 88 8 100 4 93
-34z m1040 35 c15 -1 18 -8 15 -38 l-3 -38 -73 -1 c-76 -1 -106 12 -97 41 3 8
7 22 10 30 4 13 17 15 67 11 35 -2 71 -5 81 -5z m275 -23 c13 -11 12 -44 -1
-64 -8 -13 -136 -8 -150 5 -15 15 -15 61 0 69 18 11 135 2 151 -10z m3549 -5
c25 -33 16 -46 -28 -40 -48 6 -48 7 -55 42 -5 27 -4 28 33 22 21 -4 44 -14 50
-24z m2199 19 c7 -4 71 -113 144 -242 73 -129 137 -240 142 -246 21 -27 17
-54 -10 -68 -39 -20 -412 -88 -607 -111 -50 -5 -114 -13 -170 -20 -16 -2 -68
-7 -115 -10 -47 -4 -101 -8 -120 -10 -86 -9 -178 -7 -198 4 -27 15 -24 8 -147
291 -92 213 -102 242 -89 255 9 8 25 15 37 16 88 2 271 16 327 24 14 2 56 6
94 10 38 3 72 8 75 10 3 1 31 6 62 9 31 3 80 11 110 16 30 6 68 13 84 15 48 8
227 45 265 54 44 11 102 13 116 3z m-7314 -37 c-4 -40 -13 -48 -69 -54 -91
-11 -113 5 -78 56 16 22 40 29 110 28 38 0 40 -1 37 -30z m6643 5 c9 -17 11
-30 5 -30 -5 0 -13 -1 -17 -2 -80 -19 -105 -13 -117 29 -6 18 -2 22 21 25 83
10 92 8 108 -22z m-4847 4 c17 -3 32 -8 33 -12 10 -68 2 -75 -70 -67 -87 11
-90 12 -88 48 1 17 6 35 11 38 8 6 47 4 114 -7z m3499 -10 c27 -37 17 -47 -43
-41 -61 6 -68 10 -79 46 -7 23 -7 24 51 18 39 -4 62 -11 71 -23z m-5537 -8 c0
-26 -13 -55 -26 -60 -8 -3 -41 -8 -74 -12 -59 -6 -60 -6 -60 18 0 41 22 59 80
67 60 8 80 5 80 -13z m6679 2 c12 -12 21 -25 21 -30 0 -12 -42 -20 -86 -16
-29 2 -41 9 -51 28 -12 23 -11 25 15 30 61 12 81 10 101 -12z m-963 4 c18 -12
35 -50 25 -57 -19 -11 -106 4 -118 21 -24 33 -16 44 35 44 26 0 52 -4 58 -8z
m-3410 -19 c18 -7 19 -73 2 -74 -35 -3 -124 7 -138 16 -12 7 -14 58 -2 69 7 8
111 0 138 -11z m3615 -6 c28 -30 19 -42 -32 -43 -53 -1 -75 8 -82 35 -7 27 -2
29 49 29 33 0 50 -5 65 -21z m370 14 c10 -2 28 -48 22 -55 -4 -3 -30 -6 -58
-6 -46 0 -53 3 -63 25 -7 14 -12 28 -12 30 0 7 73 11 111 6z m201 -16 c6 -14
9 -27 7 -30 -3 -2 -26 -6 -53 -8 -39 -3 -50 0 -62 17 -26 37 -18 46 41 46 49
0 57 -3 67 -25z m-374 -10 c7 -14 12 -28 12 -30 0 -3 -26 -5 -58 -5 -53 0 -60
2 -70 25 -7 14 -12 28 -12 30 0 3 26 5 58 5 53 0 60 -2 70 -25z m3204 -29 c9
-16 6 -24 -18 -43 -39 -31 -55 -29 -81 12 l-23 34 37 25 c35 24 38 25 56 8 10
-9 24 -26 29 -36z m-6774 12 c7 -6 12 -25 10 -42 -3 -30 -5 -31 -44 -28 -70 5
-98 16 -105 43 -11 45 -2 52 65 44 33 -3 67 -11 74 -17z m2787 -3 c17 -2 62
-7 100 -10 39 -3 81 -8 95 -10 14 -2 57 -6 95 -9 39 -4 97 -9 130 -12 33 -2
159 -7 279 -9 210 -4 276 -13 276 -37 0 -9 26 -73 79 -193 113 -257 134 -315
120 -331 -13 -15 -40 -16 -314 -10 -165 3 -316 8 -335 10 -19 2 -76 7 -126 11
-51 3 -100 7 -110 9 -11 2 -53 7 -94 11 -102 9 -135 20 -150 53 -12 27 -159
484 -164 512 -6 29 11 31 119 15z m-2610 -19 c55 -8 65 -16 65 -53 l0 -35 -57
7 c-76 9 -93 19 -93 54 0 34 7 42 34 36 12 -2 35 -6 51 -9z m211 -37 c64 -12
74 -20 74 -62 l0 -29 -52 7 c-75 10 -88 19 -88 60 0 19 1 35 3 35 2 0 30 -5
63 -11z m6233 -18 c12 -16 21 -34 21 -39 0 -5 -19 -19 -42 -31 l-43 -21 -22
27 c-31 38 -28 55 10 75 45 23 53 22 76 -11z m-6009 -26 c47 -10 60 -22 60
-55 0 -36 -11 -39 -73 -23 -59 15 -55 12 -57 43 -4 43 -1 52 18 46 9 -2 33 -8
52 -11z m5857 -57 c25 -36 24 -41 -19 -62 -43 -22 -63 -20 -82 9 -24 36 -20
48 22 67 51 22 54 22 79 -14z m-5662 9 c43 -11 51 -18 59 -45 5 -18 6 -35 3
-38 -9 -9 -111 17 -119 30 -10 14 -10 66 0 66 4 0 29 -6 57 -13z m200 -52 c46
-14 53 -20 59 -46 3 -17 4 -35 1 -39 -5 -7 -108 20 -120 32 -11 10 -14 68 -3
68 5 0 34 -7 63 -15z m5295 -35 c12 -16 19 -34 16 -39 -3 -5 -26 -16 -51 -24
-49 -17 -61 -12 -86 35 -13 23 -14 22 31 41 51 22 66 20 90 -13z m-5088 -23
c27 -7 52 -17 57 -22 11 -13 22 -60 15 -67 -5 -5 -122 26 -129 34 -1 2 -6 18
-10 36 -8 37 -5 38 67 19z m4911 -46 c23 -38 23 -38 -19 -56 -55 -23 -77 -19
-98 16 -21 35 -22 32 24 52 53 23 74 21 93 -12z m-4646 -34 c23 -24 20 -70 -4
-63 -10 3 -37 10 -60 16 -36 9 -44 16 -51 43 -5 19 -5 35 1 38 12 8 98 -18
114 -34z m4438 -5 c6 -4 18 -19 28 -35 14 -21 15 -28 5 -32 -72 -26 -102 -34
-109 -29 -11 6 -42 65 -37 69 3 3 90 33 98 34 3 0 10 -3 15 -7z m-4280 -23
c46 -13 55 -23 55 -62 0 -25 -3 -27 -22 -21 -13 4 -38 10 -56 15 -40 9 -38 6
-47 47 -8 37 2 40 70 21z m192 -46 c38 -6 50 -18 55 -53 3 -23 0 -25 -31 -22
-51 4 -84 23 -92 54 -8 31 -2 41 20 32 9 -3 31 -8 48 -11z m3914 -14 c24 -34
20 -41 -30 -58 -55 -18 -75 -14 -95 20 -10 17 -16 33 -13 36 5 4 90 30 109 32
4 1 16 -13 29 -30z m-3686 -41 c1 -2 6 -18 10 -37 l7 -34 -37 7 c-67 13 -82
23 -87 55 -3 17 -3 33 -1 35 4 4 102 -20 108 -26z m3490 -19 c19 -36 14 -40
-69 -55 -33 -6 -41 -4 -57 17 -32 42 -24 52 48 65 15 3 29 7 31 9 9 9 34 -10
47 -36z m-3348 -4 c26 -5 35 -13 41 -38 5 -18 8 -35 6 -38 -5 -9 -85 9 -100
22 -13 11 -24 56 -16 64 3 3 13 3 21 1 9 -3 31 -7 48 -11z m3134 -36 c12 -17
18 -34 13 -39 -5 -4 -34 -13 -64 -19 -52 -11 -55 -11 -72 11 -31 40 -23 54 35
65 28 6 55 11 59 12 4 0 16 -13 29 -30z m-2936 -10 c8 -8 17 -26 20 -41 6 -22
4 -26 -12 -23 -10 2 -27 4 -39 4 -29 1 -52 22 -60 55 -7 28 -7 28 36 23 23 -2
48 -11 55 -18z m2725 -40 c7 -16 10 -32 8 -35 -8 -8 -111 -22 -124 -17 -16 6
-37 54 -27 64 10 10 104 27 120 21 6 -2 17 -17 23 -33z m-2554 9 c14 -15 23
-57 12 -58 -68 -4 -108 19 -108 61 0 20 4 21 41 16 23 -3 48 -11 55 -19z m161
-22 c6 -6 13 -22 15 -36 3 -26 3 -26 -64 -21 -19 1 -52 56 -43 71 7 11 76 1
92 -14z m2173 -18 c20 -36 8 -46 -62 -54 -56 -6 -56 -6 -73 26 -9 17 -15 34
-12 36 7 7 90 22 112 21 10 -1 26 -14 35 -29z m-2038 8 c18 -4 29 -16 37 -37
6 -18 11 -34 11 -36 0 -4 -94 6 -95 10 -1 1 -7 15 -13 31 -13 30 -3 48 22 41
6 -2 23 -6 38 -9z m175 -30 c7 -6 14 -22 15 -36 2 -18 -2 -24 -14 -23 -10 0
-29 1 -42 2 -17 1 -27 10 -35 32 -6 18 -11 36 -11 40 0 11 72 -1 87 -15z
m1646 -7 c10 -18 15 -34 12 -37 -3 -3 -31 -9 -63 -13 -52 -8 -59 -6 -74 14
-10 12 -18 30 -18 39 0 16 5 18 105 26 13 1 26 -9 38 -29z m-1451 -7 c4 -4 10
-19 13 -34 7 -27 6 -28 -36 -28 -67 0 -87 9 -98 42 -6 17 -11 33 -11 36 0 7
124 -8 132 -16z m1219 9 c8 -1 33 -60 28 -65 -2 -2 -28 -6 -57 -9 -44 -4 -57
-2 -73 14 -10 10 -19 28 -19 38 0 16 8 20 43 23 23 2 49 2 57 1 8 -1 18 -2 21
-2z m-1013 -24 c6 -6 14 -25 17 -40 l7 -27 -57 5 c-70 7 -70 7 -83 45 l-11 30
58 0 c35 0 63 -5 69 -13z m822 -16 c6 -16 10 -33 7 -38 -3 -5 -30 -9 -60 -11
-49 -2 -55 0 -65 23 -21 45 -16 50 47 53 56 2 59 1 71 -27z m-605 -13 c7 -18
12 -36 9 -39 -2 -3 -27 -5 -56 -3 -40 2 -57 8 -70 24 -32 40 -24 50 42 50 59
0 61 -1 75 -32z m201 -3 c8 -19 14 -37 14 -40 0 -7 -118 -1 -124 6 -1 2 -8 18
-14 36 l-10 31 60 1 c58 0 60 -1 74 -34z m200 10 c25 -38 13 -51 -42 -49 -27
1 -52 2 -56 3 -12 2 -38 58 -31 65 4 3 30 6 59 6 46 0 56 -4 70 -25z"/>
<path d="M2705 5956 c-67 -26 -116 -58 -140 -93 -14 -21 -25 -43 -25 -50 0
-15 16 -17 25 -3 7 12 77 49 109 58 45 12 224 11 268 -3 53 -16 124 -50 133
-65 8 -13 25 -13 25 1 0 6 -14 30 -30 54 -22 32 -48 53 -97 77 -60 29 -78 33
-153 34 -47 1 -98 -4 -115 -10z"/>
<path d="M6646 5206 c-27 -117 -61 -148 -185 -162 -70 -8 -65 -15 18 -33 61
-13 105 -41 125 -79 12 -23 28 -105 29 -149 1 -29 15 1 27 56 23 111 62 144
180 157 36 3 67 8 69 10 1 1 -15 7 -38 13 -23 6 -59 16 -81 21 -73 19 -102 64
-115 180 -4 30 -8 56 -10 58 -1 2 -10 -31 -19 -72z"/>
<path d="M10060 4926 c0 -2 8 -10 18 -17 15 -13 16 -12 3 4 -13 16 -21 21 -21
13z"/>
</g>
</svg>
